<svg xmlns="http://www.w3.org/2000/svg" viewBox="0 0 512 512">
  <rect width="512" height="512" rx="80" fill="#1a4a8a"/>
  <circle cx="256" cy="256" r="180" fill="#1e5ba8" opacity="0.4"/>
  <!-- Water drop -->
  <path d="M256 100 C256 100 160 210 160 285 C160 338 203 380 256 380 C309 380 352 338 352 285 C352 210 256 100 256 100Z" fill="#4fc3f7"/>
  <path d="M256 160 C256 160 200 230 200 278 C200 309 225 334 256 334 C287 334 312 309 312 278 C312 230 256 160 256 160Z" fill="white" opacity="0.35"/>
  <!-- Pipe horizontal -->
  <rect x="120" y="395" width="272" height="28" rx="14" fill="white" opacity="0.9"/>
  <rect x="180" y="375" width="20" height="48" rx="6" fill="white" opacity="0.7"/>
  <rect x="312" y="375" width="20" height="48" rx="6" fill="white" opacity="0.7"/>
</svg>
